<svg xmlns="http://www.w3.org/2000/svg" viewBox="0 0 64 64">
  <defs>
    <linearGradient id="ring" x1="6" y1="10" x2="58" y2="54" gradientUnits="userSpaceOnUse">
      <stop offset="0" stop-color="#d93cff" />
      <stop offset="0.5" stop-color="#7df74f" />
      <stop offset="1" stop-color="#f08b3e" />
    </linearGradient>
    <linearGradient id="screen" x1="18" y1="22" x2="46" y2="42" gradientUnits="userSpaceOnUse">
      <stop offset="0" stop-color="#d93cff" />
      <stop offset="0.5" stop-color="#7df74f" />
      <stop offset="1" stop-color="#f08b3e" />
    </linearGradient>
  </defs>
  <rect width="64" height="64" rx="12" fill="#171717" />
  <circle cx="32" cy="32" r="21" fill="none" stroke="url(#ring)" stroke-width="2.6" />
  <rect x="18" y="22" width="28" height="17" rx="2.5" fill="url(#screen)" />
  <rect x="28.5" y="40.5" width="7" height="2.6" rx="1.2" fill="#7df74f" />
  <rect x="24" y="44" width="16" height="2.8" rx="1.4" fill="url(#screen)" />
  <g transform="translate(32 30)">
    <circle r="5.8" fill="#171717" />
    <circle r="2.2" fill="#7df74f" />
    <g fill="#171717">
      <rect x="-1" y="-10" width="2" height="4" rx="0.8" />
      <rect x="-1" y="6" width="2" height="4" rx="0.8" />
      <rect x="-10" y="-1" width="4" height="2" rx="0.8" />
      <rect x="6" y="-1" width="4" height="2" rx="0.8" />
      <rect x="-7.7" y="-7.7" width="2" height="4" rx="0.8" transform="rotate(-45)" />
      <rect x="5.7" y="-7.7" width="2" height="4" rx="0.8" transform="rotate(45)" />
      <rect x="-7.7" y="3.7" width="2" height="4" rx="0.8" transform="rotate(45)" />
      <rect x="5.7" y="3.7" width="2" height="4" rx="0.8" transform="rotate(-45)" />
    </g>
  </g>
</svg>
