<svg width="1600" height="900" viewBox="0 0 1600 900" fill="none" xmlns="http://www.w3.org/2000/svg">
  <defs>
    <linearGradient id="bg" x1="96" y1="86" x2="1486" y2="804" gradientUnits="userSpaceOnUse">
      <stop stop-color="#10203D"/>
      <stop offset="1" stop-color="#0B5A91"/>
    </linearGradient>
  </defs>
  <rect width="1600" height="900" fill="url(#bg)"/>
  <rect x="124" y="146" width="1352" height="608" rx="36" fill="#081426" fill-opacity="0.58" stroke="#2C74D8" stroke-width="8"/>
  <rect x="192" y="214" width="376" height="220" rx="28" fill="#12284F"/>
  <rect x="612" y="214" width="372" height="220" rx="28" fill="#0E203F"/>
  <rect x="1028" y="214" width="380" height="220" rx="28" fill="#13305C"/>
  <rect x="192" y="472" width="540" height="214" rx="28" fill="#0E203F"/>
  <rect x="776" y="472" width="632" height="214" rx="28" fill="#12284F"/>
  <rect x="238" y="266" width="162" height="18" rx="9" fill="#5EE8FF"/>
  <rect x="238" y="304" width="270" height="16" rx="8" fill="#79BFFF"/>
  <rect x="238" y="340" width="228" height="16" rx="8" fill="#79BFFF" fill-opacity="0.62"/>
  <path d="M662 366H930" stroke="#7FD9FF" stroke-width="12" stroke-linecap="round"/>
  <path d="M690 326L754 282L814 316L894 250L930 276" stroke="#7FD9FF" stroke-width="12" stroke-linecap="round" stroke-linejoin="round"/>
  <circle cx="754" cy="282" r="12" fill="#7FD9FF"/>
  <circle cx="894" cy="250" r="12" fill="#7FD9FF"/>
  <circle cx="1218" cy="324" r="78" stroke="#F7FBFF" stroke-width="12"/>
  <path d="M1218 246C1262 246 1298 282 1298 326" stroke="#5EE8FF" stroke-width="16" stroke-linecap="round"/>
  <rect x="246" y="532" width="168" height="112" rx="20" fill="#183769"/>
  <rect x="436" y="532" width="248" height="112" rx="20" fill="#1F4D8B"/>
  <rect x="836" y="528" width="258" height="18" rx="9" fill="#5EE8FF"/>
  <rect x="836" y="566" width="336" height="16" rx="8" fill="#79BFFF"/>
  <rect x="836" y="602" width="300" height="16" rx="8" fill="#79BFFF" fill-opacity="0.62"/>
  <rect x="1188" y="528" width="146" height="122" rx="18" fill="#244C84"/>
  <text x="194" y="106" fill="#F7FBFF" font-family="Trebuchet MS, Arial" font-size="62" font-weight="700">Showcase Delivery</text>
</svg>
