<svg xmlns="http://www.w3.org/2000/svg" viewBox="0 0 800 480">
  <defs>
    <linearGradient id="bg" x1="0" y1="0" x2="1" y2="1">
      <stop offset="0" stop-color="#0c1224" />
      <stop offset="1" stop-color="#157f6b" />
    </linearGradient>
  </defs>
  <rect width="800" height="480" rx="42" fill="url(#bg)" />
  <rect x="72" y="66" width="656" height="348" rx="28" fill="#ffffff" opacity="0.08" />
  <rect x="112" y="112" width="164" height="112" rx="20" fill="#ffffff" opacity="0.14" />
  <rect x="304" y="112" width="164" height="112" rx="20" fill="#ffffff" opacity="0.14" />
  <rect x="496" y="112" width="192" height="112" rx="20" fill="#ffffff" opacity="0.14" />
  <rect x="112" y="266" width="576" height="98" rx="20" fill="#ffffff" opacity="0.14" />
  <rect x="140" y="188" width="34" height="18" rx="9" fill="#76f2a6" />
  <rect x="332" y="160" width="34" height="46" rx="9" fill="#70a2ff" />
  <rect x="524" y="146" width="124" height="14" rx="7" fill="#ffffff" opacity="0.82" />
  <rect x="524" y="174" width="88" height="14" rx="7" fill="#b8fff3" />
  <path d="M152 326 C220 250 288 338 360 286 S496 328 612 250" fill="none" stroke="#8ddcff" stroke-width="14" stroke-linecap="round" />
  <text x="112" y="394" fill="#ffffff" font-family="Segoe UI, Arial, sans-serif" font-size="40" font-weight="700">Dashboard React</text>
</svg>
